<?xml version="1.0" standalone="no"?>
<!DOCTYPE svg PUBLIC "-//W3C//DTD SVG 20010904//EN"
 "http://www.w3.org/TR/2001/REC-SVG-20010904/DTD/svg10.dtd">
<svg version="1.0" xmlns="http://www.w3.org/2000/svg"
 width="400.000000pt" height="400.000000pt" viewBox="0 0 400.000000 400.000000"
 preserveAspectRatio="xMidYMid meet">
<metadata>
Created by potrace 1.11, written by Peter Selinger 2001-2013
</metadata>
<g transform="translate(0.000000,400.000000) scale(0.100000,-0.100000)"
fill="#000000" stroke="none">
<path d="M845 3529 c-225 -266 -341 -568 -349 -916 -3 -119 9 -243 34 -345 6
-24 13 -52 15 -62 42 -180 182 -436 320 -584 l52 -56 106 105 106 105 -40 44
c-386 439 -392 1069 -13 1516 l52 61 -102 102 c-56 55 -106 101 -111 101 -6 0
-37 -32 -70 -71z"/>
<path d="M2984 3500 c-99 -101 -114 -120 -95 -120 12 0 126 -147 167 -215 29
-49 93 -186 100 -215 2 -8 8 -33 14 -55 48 -174 55 -362 18 -545 -34 -174
-141 -384 -263 -518 -16 -19 -33 -39 -37 -46 -4 -7 36 -54 98 -116 l105 -105
46 50 c95 106 165 208 232 342 34 69 83 193 75 193 -2 0 0 8 5 19 6 10 19 59
30 107 97 440 -16 896 -307 1243 -55 65 -71 81 -83 81 -3 0 -50 -45 -105 -100z"/>
<path d="M1274 3162 c-60 -69 -113 -156 -151 -244 -18 -43 -30 -78 -28 -78 2
0 -3 -23 -11 -52 -22 -72 -31 -216 -20 -298 17 -122 39 -197 86 -291 39 -80
147 -229 165 -229 3 0 53 47 111 104 l104 104 -39 48 c-89 113 -131 237 -125
374 2 47 6 97 9 113 16 77 88 215 133 254 l26 22 -109 111 -110 110 -41 -48z"/>
<path d="M2581 3096 l-103 -103 30 -34 c59 -68 114 -181 129 -264 9 -49 8
-168 -1 -215 -17 -91 -55 -171 -116 -248 l-41 -53 105 -107 105 -106 30 28
c34 33 107 139 139 202 22 44 61 153 69 194 17 92 21 136 18 225 -4 134 -22
216 -79 346 -31 73 -152 239 -174 239 -4 0 -54 -47 -111 -104z"/>
<path d="M1987 2944 c-1 -1 -22 -4 -46 -8 -172 -23 -307 -191 -295 -368 6 -96
23 -135 98 -231 39 -51 52 -80 59 -142 1 -13 -53 -177 -63 -190 -5 -5 -9 -13
-9 -17 -4 -22 -11 -42 -103 -303 -33 -93 -66 -188 -73 -210 -7 -22 -34 -98
-60 -170 -52 -147 -123 -347 -135 -385 -5 -14 -34 -97 -65 -185 -31 -88 -72
-203 -90 -255 l-32 -95 165 1 164 1 36 67 c186 354 764 346 940 -13 l27 -56
157 1 c87 0 161 3 164 7 4 3 2 19 -4 34 -13 34 -41 115 -172 488 -55 160 -104
297 -107 305 -4 8 -7 18 -8 23 -2 4 -3 8 -5 10 -1 1 -3 9 -5 17 -2 8 -24 71
-49 140 -25 69 -46 131 -46 138 0 7 -5 20 -10 30 -20 34 -211 588 -214 621 -5
49 12 94 55 146 103 125 122 262 54 402 -44 90 -126 156 -225 183 -41 11 -97
19 -103 14z m78 -1319 c30 -87 55 -160 55 -162 0 -2 -52 -3 -115 -2 -63 0
-115 4 -115 8 0 6 55 167 94 274 3 9 8 24 11 33 3 9 8 15 10 12 3 -3 30 -76
60 -163z m157 -445 c5 -7 39 -102 43 -120 2 -8 8 -27 14 -42 l11 -28 -103 -1
c-232 -1 -460 1 -463 4 -4 3 26 94 54 167 l10 25 215 0 c118 0 217 -2 219 -5z"/>
</g>
</svg>
